<svg width="13" height="13" viewBox="0 0 13 13" fill="none" xmlns="http://www.w3.org/2000/svg">
<g clip-path="url(#clip0_8_1778)">
<path d="M6.49685 0.503909C3.18509 0.504612 0.500956 3.1899 0.501659 6.50165C0.501893 7.6484 0.830971 8.77103 1.44982 9.73645L0.516884 12.157C0.467202 12.2858 0.531289 12.4304 0.660026 12.4801C0.688813 12.4912 0.719381 12.4969 0.75023 12.4968C0.778854 12.497 0.807267 12.4921 0.834181 12.4823L3.33271 11.5904C6.14383 13.3412 9.842 12.4816 11.5928 9.67045C13.3436 6.85931 12.484 3.16116 9.67286 1.41038C8.71994 0.816872 7.61952 0.502808 6.49685 0.503909Z" fill="#5D6C7B"/>
<path d="M9.35557 7.52457C9.35557 7.52457 8.74344 7.22475 8.36016 7.02487C7.92642 6.8015 7.41672 7.21976 7.17686 7.45762C6.80356 7.31422 6.46261 7.09779 6.17396 6.82099C5.89711 6.53239 5.68068 6.19144 5.53732 5.81809C5.77519 5.57774 6.19244 5.06853 5.97008 4.63479C5.77269 4.25102 5.47038 3.63889 5.47038 3.63889C5.42796 3.55471 5.34178 3.50156 5.2475 3.50146H4.74781C4.02008 3.62716 3.49097 4.26212 3.49855 5.00058C3.49855 5.78511 4.43749 7.29223 5.07063 7.92584C5.70377 8.55945 7.21087 9.49792 7.99589 9.49792C8.73435 9.50551 9.36932 8.97637 9.49501 8.24866V7.74897C9.49508 7.65368 9.44102 7.56666 9.35557 7.52457Z" fill="#F7F7F7"/>
</g>
<defs>
<clipPath id="clip0_8_1778">
<rect width="12" height="12" fill="white" transform="translate(0.5 0.5)"/>
</clipPath>
</defs>
</svg>
