<svg width="26" height="11" viewBox="0 0 26 11" fill="none" xmlns="http://www.w3.org/2000/svg">
<path fill-rule="evenodd" clip-rule="evenodd" d="M5.27275 1.43958C4.98672 1.7822 4.52907 2.05244 4.07142 2.01383C4.01421 1.55057 4.23827 1.05836 4.50046 0.754343C4.78649 0.402072 5.28705 0.151138 5.69226 0.131836C5.73993 0.614399 5.55401 1.08731 5.27275 1.43958ZM5.6875 2.10551C5.28432 2.08202 4.91644 2.22825 4.61929 2.34636C4.42806 2.42237 4.26613 2.48673 4.14294 2.48673C4.00469 2.48673 3.83607 2.41892 3.64675 2.34279C3.39869 2.24304 3.11507 2.12899 2.81766 2.13446C2.13596 2.14411 1.50192 2.53499 1.15392 3.15749C0.438841 4.40251 0.967997 6.2459 1.65924 7.25928C1.99771 7.76115 2.40292 8.31127 2.93684 8.29197C3.17174 8.283 3.34071 8.21042 3.51557 8.13531C3.71689 8.04883 3.92603 7.959 4.25258 7.959C4.56781 7.959 4.7678 8.04649 4.95978 8.13048C5.14232 8.21033 5.31762 8.28702 5.57786 8.28232C6.13085 8.27267 6.47885 7.78045 6.81732 7.27859C7.18258 6.73996 7.3431 6.21428 7.36746 6.13449L7.36746 6.13449L7.37032 6.12526C7.36973 6.12467 7.36522 6.12258 7.35726 6.11889C7.23515 6.0623 6.30189 5.62981 6.29293 4.47007C6.28395 3.49663 7.03318 3.00342 7.15112 2.92579L7.15113 2.92578C7.1583 2.92106 7.16314 2.91787 7.16533 2.91621C6.68861 2.20202 5.94493 2.12481 5.6875 2.10551ZM9.51559 8.22929V0.706129H12.3044C13.7441 0.706129 14.75 1.70986 14.75 3.17685C14.75 4.64385 13.725 5.65723 12.2663 5.65723H10.6692V8.22929H9.51559ZM10.6692 1.69046H11.9992C13.0003 1.69046 13.5724 2.23093 13.5724 3.18158C13.5724 4.13223 13.0003 4.67753 11.9944 4.67753H10.6692V1.69046ZM18.559 7.32682C18.2539 7.91555 17.5817 8.28712 16.8571 8.28712C15.7845 8.28712 15.036 7.64049 15.036 6.66571C15.036 5.70058 15.7606 5.14564 17.1002 5.0636L18.5399 4.97674V4.56174C18.5399 3.94888 18.1442 3.61591 17.4387 3.61591C16.8571 3.61591 16.4328 3.91993 16.347 4.38319H15.3078C15.3411 3.40841 16.2469 2.69904 17.4721 2.69904C18.7926 2.69904 19.6507 3.39876 19.6507 4.48453V8.22921H18.5828V7.32682H18.559ZM17.167 7.39447C16.552 7.39447 16.1611 7.09528 16.1611 6.63684C16.1611 6.16393 16.5377 5.88887 17.2575 5.84544L18.5399 5.76341V6.18806C18.5399 6.8926 17.9488 7.39447 17.167 7.39447ZM23.1926 8.52358C22.7301 9.84097 22.201 10.2753 21.0759 10.2753C20.9901 10.2753 20.7041 10.2656 20.6373 10.2463V9.34393C20.7089 9.35358 20.8852 9.36323 20.9758 9.36323C21.4859 9.36323 21.7719 9.14608 21.9483 8.58148L22.0532 8.24851L20.0987 2.77142H21.3048L22.6634 7.21583H22.6872L24.0459 2.77142H25.2186L23.1926 8.52358Z" fill="#282739"/>
</svg>
