<svg width="26" height="11" viewBox="0 0 26 11" fill="none" xmlns="http://www.w3.org/2000/svg">
<path fill-rule="evenodd" clip-rule="evenodd" d="M12.0941 8.65901V5.7177H13.6122C14.2343 5.7177 14.7593 5.50926 15.1873 5.09817L15.2901 4.99395C16.0719 4.14283 16.0206 2.81692 15.1873 2.02948C14.7707 1.6126 14.2 1.38679 13.6122 1.39837H11.1753V8.65901H12.0941ZM12.0945 4.82611V2.2901H13.6356C13.9667 2.2901 14.2806 2.41748 14.5146 2.64908C15.0112 3.13543 15.0226 3.94603 14.5432 4.44976C14.3092 4.69873 13.9781 4.83769 13.6356 4.82611H12.0945ZM19.5762 4.07918C19.1824 3.71441 18.6459 3.52913 17.9668 3.52913C17.0936 3.52913 16.4373 3.85337 16.0036 4.49606L16.814 5.01137C17.1107 4.57133 17.5159 4.35131 18.0296 4.35131C18.3549 4.35131 18.6688 4.4729 18.9142 4.69292C19.1539 4.90136 19.2908 5.20244 19.2908 5.52088V5.73511C18.937 5.53825 18.4918 5.43403 17.944 5.43403C17.3048 5.43403 16.7911 5.58457 16.4088 5.89144C16.0264 6.19831 15.8324 6.60361 15.8324 7.11892C15.821 7.58791 16.0207 8.03374 16.3745 8.33482C16.7341 8.65906 17.1906 8.82117 17.7271 8.82117C18.3606 8.82117 18.8628 8.53747 19.2452 7.97005H19.2851V8.65906H20.164V5.59615C20.164 4.95347 19.97 4.44395 19.5762 4.07918ZM17.0823 7.74433C16.8939 7.60537 16.7797 7.37956 16.7797 7.13639C16.7797 6.86426 16.9053 6.63845 17.1507 6.45896C17.4019 6.27947 17.7158 6.18683 18.0869 6.18683C18.6006 6.18104 19.0001 6.29684 19.2855 6.52844C19.2855 6.92216 19.1314 7.26377 18.8289 7.55326C18.5549 7.83118 18.1839 7.98751 17.7957 7.98751C17.5389 7.9933 17.2877 7.90645 17.0823 7.74433ZM22.1386 10.8419L25.209 3.69124H24.2103L22.7892 7.25787H22.7721L21.3168 3.69124H20.3181L22.3327 8.3406L21.1913 10.8419H22.1386Z" fill="#282739"/>
<path d="M8.92207 5.08069C8.92207 4.79698 8.89924 4.51327 8.85359 4.23535H4.97852V5.83918H7.19855C7.10724 6.35449 6.81047 6.81768 6.37674 7.10718V8.14938H7.70077C8.47692 7.42563 8.92207 6.35449 8.92207 5.08069Z" fill="#4285F4"/>
<path d="M4.9787 9.15688C6.08586 9.15688 7.02182 8.78632 7.70095 8.14942L6.37692 7.10723C6.00597 7.36198 5.53228 7.50673 4.9787 7.50673C3.90578 7.50673 2.99836 6.77141 2.67306 5.78711H1.30908V6.86405C2.00534 8.27101 3.42639 9.15688 4.9787 9.15688Z" fill="#34A853"/>
<path d="M2.6733 5.7871C2.50206 5.27179 2.50206 4.71017 2.6733 4.18907V3.11792H1.3091C0.721185 4.29329 0.721185 5.68288 1.3091 6.85825L2.6733 5.7871Z" fill="#FBBC04"/>
<path d="M4.9787 2.46949C5.56652 2.45791 6.13152 2.68372 6.55384 3.09481L7.72949 1.90207C6.98187 1.19569 6.00026 0.807764 4.9787 0.819344C3.42639 0.819344 2.00534 1.711 1.30908 3.11797L2.67306 4.1949C2.99836 3.20482 3.90578 2.46949 4.9787 2.46949Z" fill="#EA4335"/>
</svg>
