<svg width="22" height="14" viewBox="0 0 22 14" fill="none" xmlns="http://www.w3.org/2000/svg">
<path d="M13.3468 7.12359C13.3468 10.8355 10.3723 13.8446 6.70295 13.8446C3.03364 13.8446 0.059082 10.8355 0.059082 7.12359C0.059082 3.41168 3.03364 0.402588 6.70295 0.402588C10.3723 0.402588 13.3468 3.41168 13.3468 7.12359Z" fill="#ED0006"/>
<path d="M21.966 7.12359C21.966 10.8355 18.9914 13.8446 15.3221 13.8446C11.6528 13.8446 8.67822 10.8355 8.67822 7.12359C8.67822 3.41168 11.6528 0.402588 15.3221 0.402588C18.9914 0.402588 21.966 3.41168 21.966 7.12359Z" fill="#0099DF"/>
<path fill-rule="evenodd" clip-rule="evenodd" d="M11.0125 12.2391C12.441 11.0064 13.3468 9.17204 13.3468 7.12371C13.3468 5.07537 12.441 3.24106 11.0125 2.0083C9.58402 3.24106 8.67822 5.07537 8.67822 7.12371C8.67822 9.17204 9.58402 11.0064 11.0125 12.2391Z" fill="#6C6BBD"/>
</svg>
