<svg width="23" height="14" viewBox="0 0 23 14" fill="none" xmlns="http://www.w3.org/2000/svg">
<path fill-rule="evenodd" clip-rule="evenodd" d="M11.0673 12.239C9.90709 13.2402 8.40214 13.8446 6.75764 13.8446C3.08833 13.8446 0.11377 10.8355 0.11377 7.12359C0.11377 3.41168 3.08833 0.402588 6.75764 0.402588C8.40219 0.402588 9.90718 1.00704 11.0674 2.00831C12.2275 1.0071 13.7325 0.402682 15.377 0.402682C19.0463 0.402682 22.0209 3.41178 22.0209 7.12368C22.0209 10.8356 19.0463 13.8447 15.377 13.8447C13.7324 13.8447 12.2274 13.2402 11.0673 12.239Z" fill="#ED0006"/>
<path fill-rule="evenodd" clip-rule="evenodd" d="M11.0674 12.239C12.4959 11.0062 13.4017 9.17192 13.4017 7.12359C13.4017 5.07525 12.4959 3.24093 11.0674 2.00818C12.2275 1.00699 13.7325 0.402588 15.377 0.402588C19.0463 0.402588 22.0208 3.41168 22.0208 7.12359C22.0208 10.8355 19.0463 13.8446 15.377 13.8446C13.7325 13.8446 12.2275 13.2402 11.0674 12.239Z" fill="#F9A000"/>
<path fill-rule="evenodd" clip-rule="evenodd" d="M11.0672 12.2391C12.4957 11.0064 13.4015 9.17204 13.4015 7.12371C13.4015 5.07537 12.4957 3.24106 11.0672 2.0083C9.63871 3.24106 8.73291 5.07537 8.73291 7.12371C8.73291 9.17204 9.63871 11.0064 11.0672 12.2391Z" fill="#FF5E00"/>
</svg>
