<svg width="16" height="17" viewBox="0 0 16 17" fill="none" xmlns="http://www.w3.org/2000/svg">
<path fill-rule="evenodd" clip-rule="evenodd" d="M0.40918 7.57878C0.40918 11.3487 3.48368 14.4232 7.2902 14.4232C7.75741 14.4232 8.22462 14.3823 8.76145 14.3353C9.36011 14.2829 10.0453 14.2229 10.9137 14.2036C12.2314 14.2036 13.6588 14.6794 15.2327 16.0702C15.3791 16.2167 15.5987 16.0336 15.4523 15.8506C13.8784 13.9108 12.451 13.5448 11.0235 13.2154C9.26666 12.8127 8.35163 11.8611 7.72941 10.7631C7.61961 10.5435 7.54641 10.5801 7.54641 10.8729C7.50981 11.3121 7.54641 11.7147 7.61961 12.1173H7.4C4.91112 12.1173 2.86146 10.0677 2.86146 7.57878C2.86146 5.0899 4.91112 3.04023 7.4 3.04023C9.88888 3.04023 11.9385 5.0899 11.9385 7.57878C11.9385 7.72518 11.9385 7.90819 11.9019 8.09119C11.5359 8.01799 10.9137 8.01799 10.4379 8.05459C10.2549 8.05459 10.2549 8.12779 10.4013 8.16439C11.8653 8.4572 12.8902 9.37223 13.1464 11.0559C13.1464 11.1291 13.183 11.1291 13.2196 11.0925C13.8052 10.0677 14.1712 8.85982 14.1712 7.57878C14.1712 3.77225 11.0967 0.697754 7.2902 0.697754C3.48368 0.697754 0.40918 3.80885 0.40918 7.57878ZM12.268 10.3971C12.5242 10.507 12.634 10.873 12.634 11.056C12.6706 11.3488 12.5974 11.4952 12.4876 11.4952C12.3778 11.4952 12.2313 11.3854 12.0849 11.1292C11.9385 10.873 11.8653 10.6168 11.9385 10.4704C12.0483 10.3972 12.1581 10.3605 12.268 10.3971ZM10.7673 11.5317C10.9137 11.5317 11.0967 11.6049 11.2797 11.7513C11.5725 12.0075 11.6823 12.3004 11.5359 12.52C11.4627 12.6298 11.2797 12.703 11.1333 12.703C10.9503 12.703 10.7673 12.6298 10.6575 12.52C10.3647 12.2638 10.2915 11.8977 10.4745 11.6781C10.5111 11.6049 10.6209 11.5317 10.7673 11.5317Z" fill="#F28A1A"/>
</svg>
