<svg width="24" height="16" viewBox="0 0 24 16" fill="none" xmlns="http://www.w3.org/2000/svg">
<path fill-rule="evenodd" clip-rule="evenodd" d="M7.54763 12.0491C7.70015 11.9699 7.95943 11.8659 8.23409 11.8659C8.86452 11.8659 9.20528 12.2916 9.20528 13.0838C9.20528 14.0091 8.74779 14.4596 8.01043 14.4596C7.7408 14.4596 7.32387 14.3755 7.01873 14.2169V10.7622L7.54763 10.6384V12.0491ZM7.54282 14.0338C7.70542 14.1031 7.88349 14.1129 8.01066 14.1129C8.38694 14.1129 8.67167 13.8853 8.67167 13.0837C8.67167 12.4549 8.43775 12.252 8.09708 12.252C7.89356 12.252 7.74625 12.3064 7.54282 12.4153V14.0338ZM2.12671 11.9302H2.16232L2.85373 14.4002H3.40287L4.22675 10.8908H3.63175L3.1131 13.5092H3.07767L2.3707 10.8908H1.91815L1.25714 13.5092H1.22153L0.651979 10.8908H0.0825195L0.906311 14.4002H1.45536L2.12671 11.9302ZM6.48006 14.2318V13.8556C6.20036 14.019 5.94621 14.113 5.67164 14.113C5.14787 14.113 4.89876 13.8505 4.89876 13.2567H6.55632V13.0736C6.55632 12.267 6.16475 11.8659 5.52928 11.8659C4.76655 11.8659 4.37498 12.4104 4.37498 13.1627C4.37498 13.9448 4.72581 14.4596 5.58 14.4596C5.94621 14.4596 6.25127 14.3606 6.48006 14.2318ZM6.0733 12.9253H4.90911C4.96486 12.4304 5.20373 12.1978 5.51409 12.1978C5.78866 12.1978 6.04812 12.4055 6.0733 12.9253ZM11.5445 13.6577H11.5189L10.3799 10.8908H9.76469V14.4002H10.2224V11.9155H10.268L11.3055 14.4002H11.6308L12.6682 11.856H12.7141V14.4002H13.2632V10.8908H12.6326L11.5445 13.6577ZM13.8225 13.1627C13.8225 12.2965 14.3107 11.8659 14.9819 11.8659C15.6531 11.8659 16.1414 12.2965 16.1414 13.1627C16.1414 14.0092 15.6786 14.4596 14.9819 14.4596C14.2852 14.4596 13.8225 14.0092 13.8225 13.1627ZM15.6072 13.1628C15.6072 12.4947 15.3274 12.2126 14.9817 12.2126C14.6461 12.2126 14.3562 12.4947 14.3562 13.1628C14.3562 13.8411 14.6208 14.1131 14.9817 14.1131C15.3427 14.1131 15.6072 13.8411 15.6072 13.1628ZM17.9208 11.8659C17.3364 11.8659 16.8531 12.0985 16.6244 12.2322V14.4002H17.1533V12.4401C17.3108 12.3512 17.5702 12.2619 17.7737 12.2619C18.033 12.2619 18.2311 12.3312 18.2311 12.7222V14.4002H18.7599V12.6083C18.7599 12.0985 18.5313 11.8659 17.9208 11.8659ZM21.3379 13.8556V14.2318C21.1092 14.3606 20.8042 14.4596 20.4379 14.4596C19.5838 14.4596 19.2329 13.9448 19.2329 13.1627C19.2329 12.4104 19.6246 11.8659 20.3872 11.8659C21.023 11.8659 21.4146 12.267 21.4146 13.0736V13.2567H19.7569C19.7569 13.8505 20.006 14.113 20.5297 14.113C20.8042 14.113 21.0585 14.019 21.3379 13.8556ZM19.7671 12.9253H20.9314C20.9062 12.4055 20.6466 12.1978 20.3721 12.1978C20.0618 12.1978 19.8231 12.4304 19.7671 12.9253ZM23.9367 11.9501H23.3926L22.8127 13.7714H22.7824L22.1316 11.9501H21.5722L22.5485 14.4249C22.4263 14.7911 22.2129 15.0586 21.8672 15.0586V15.4643C22.4516 15.4643 22.7619 15.1081 23.0162 14.4249L23.9367 11.9501Z" fill="#0068A3"/>
<path fill-rule="evenodd" clip-rule="evenodd" d="M11.6686 0.516113C12.3683 0.516113 13.0311 0.674735 13.6213 0.956349C13.714 0.999155 13.8065 1.04625 13.8992 1.09825L13.4889 1.45567L12.8725 0.835282L11.8322 1.73851L11.2142 1.08205L9.27625 2.78242L10.5187 4.1152L10.0304 4.53321L11.2542 5.868L10.7688 6.28504L12.5175 8.17966L13.5555 7.24946L14.4529 8.24627C14.2744 8.38135 14.08 8.50845 13.8657 8.62593C13.2168 8.98616 12.4667 9.1924 11.6686 9.1924C9.21392 9.1924 7.21191 7.24342 7.21191 4.85439C7.21191 2.46483 9.21392 0.516113 11.6686 0.516113ZM10.8565 4.58009L11.9163 3.65113L12.8705 4.68295L11.8109 5.61157L10.8565 4.58009ZM12.6699 5.43379L11.61 6.36249L12.5645 7.39432L13.6242 6.46535L12.6699 5.43379ZM10.0982 2.81844L11.158 1.88974L12.112 2.9213L11.0522 3.85001L10.0982 2.81844ZM12.8377 1.62196L12.0429 2.31843L12.7585 3.09236L13.5533 2.39564L12.8377 1.62196ZM13.4551 5.50916L14.2502 4.81243L14.9658 5.58628L14.1709 6.28283L13.4551 5.50916ZM14.949 6.3751L14.1544 7.07191L14.87 7.84532L15.6648 7.14877L14.949 6.3751ZM14.4746 3.49024L15.0045 3.02585L15.4815 3.54163L14.9519 4.00594L14.4746 3.49024ZM14.3275 1.49337L13.7976 1.95767L14.2746 2.47346L14.8046 2.00915L14.3275 1.49337ZM15.1518 5.02272L15.6817 4.55832L16.1588 5.07402L15.6289 5.53841L15.1518 5.02272ZM13.5702 3.17762L12.7755 3.87443L13.4913 4.64784L14.2858 3.95129L13.5702 3.17762Z" fill="#0068A3"/>
</svg>
